<?xml version="1.0" encoding="utf-8"?>
<!-- Generator: Adobe Illustrator 13.0.0, SVG Export Plug-In . SVG Version: 6.00 Build 14948)  -->
<!DOCTYPE svg PUBLIC "-//W3C//DTD SVG 1.1//EN" "http://www.w3.org/Graphics/SVG/1.1/DTD/svg11.dtd">
<svg version="1.1" id="Layer_1" xmlns="http://www.w3.org/2000/svg" xmlns:xlink="http://www.w3.org/1999/xlink" x="0px" y="0px"
	 width="252.044px" height="150px" viewBox="0 0 252.044 150" enable-background="new 0 0 252.044 150" xml:space="preserve">
<g>
	<g>
		<path fill-rule="evenodd" clip-rule="evenodd" fill="transparent" d="M1.044,0c83.667,0,167.332,0,251,0c0,50,0,100,0,150
			c-84,0-168,0-252,0c0-49,0-98,0-147C-0.042,1.581-0.121,0.168,1.044,0z M70.044,33c-10.136-2.429-16.976,3.893-15,11
			c1.356,4.88,10.521,9.011,11-1c-3.124-4.097-6.122,3.105-7,1c-0.729-4.729,0.586-7.414,4-8c25.955,0.097,24.662,68.669,4,71
			c-6.535,0.737-10.364-1.06-11-8c1.359-2.308,2.485-4.848,7-4c1.194,1.283-2.928,5.991,3,6c7.135-13.556-12.69-11.742-13-1
			c-0.162,5.601,4.095,9.773,10,11c8.397,1.744,30.602,0,52,0c18.897,0,39.122,1.319,53,0c14.146-1.345,31.275,1.517,40-2
			c-10.414-1.92-24.55-0.117-32-5c-2.341,1.083-4.213,2.412-7,3c-26.939,5.685-65.447-2.181-96,1
			C90.58,94.027,91.043,43.268,70.044,33z M96.044,78c-2.998,9.139-8.721,17.464-12,23c9.583-10.446,20.067-25.226,19-43
			C98.108,61.777,98.118,71.676,96.044,78z M123.044,70c-7.521,10.75-16.482,19.489-27,26c-3.88,2.402-8.824,4.12-12,8
			c8.958-3.19,17.982-7.459,25-13c6.577-5.192,14.573-11.892,17-21C125.044,70,124.044,70,123.044,70z M143.044,86
			c-11.377,6.954-27.726,12.856-42,16c-4.431,0.976-10.065,0.96-14,4c11.465-1.53,23.335-3.046,34-6
			c10.004-2.771,21.211-5.638,27-13C146.883,86.161,145.363,85.681,143.044,86z"/>
		<path fill-rule="evenodd" clip-rule="evenodd" fill="#ffffff" d="M73.044,108c30.553-3.181,69.061,4.685,96-1c2.787-0.588,4.659-1.917,7-3
			c7.45,4.883,21.586,3.08,32,5c-8.725,3.517-25.854,0.655-40,2c-13.878,1.319-34.103,0-53,0c-21.398,0-43.603,1.744-52,0
			c-5.905-1.227-10.162-5.399-10-11c0.31-10.742,20.135-12.556,13,1c-5.928-0.009-1.806-4.717-3-6c-4.515-0.848-5.641,1.692-7,4
			c0.636,6.94,4.465,8.737,11,8c20.662-2.331,21.955-70.903-4-71c-3.414,0.586-4.729,3.271-4,8c0.878,2.105,3.876-5.097,7-1
			c-0.479,10.011-9.644,5.88-11,1c-1.976-7.107,4.864-13.429,15-11C91.043,43.268,90.58,94.027,73.044,108z"/>
		<path fill-rule="evenodd" clip-rule="evenodd" fill="#ffffff" d="M126.044,70c-2.427,9.108-10.423,15.808-17,21c-7.018,5.541-16.042,9.81-25,13
			c3.176-3.88,8.12-5.598,12-8c10.518-6.511,19.479-15.25,27-26C124.044,70,125.044,70,126.044,70z"/>
		<path fill-rule="evenodd" clip-rule="evenodd" fill="#ffffff" d="M148.044,87c-5.789,7.362-16.996,10.229-27,13c-10.665,2.954-22.535,4.47-34,6
			c3.935-3.04,9.569-3.024,14-4c14.274-3.144,30.623-9.046,42-16C145.363,85.681,146.883,86.161,148.044,87z"/>
		<path fill-rule="evenodd" clip-rule="evenodd" fill="#ffffff" d="M103.044,58c1.067,17.774-9.417,32.554-19,43c3.279-5.536,9.002-13.861,12-23
			C98.118,71.676,98.108,61.777,103.044,58z"/>
	</g>
</g>
</svg>
